<svg xmlns="http://www.w3.org/2000/svg" viewBox="0 0 1200 630" role="img" aria-label="Relationship OS preview">
  <defs>
    <linearGradient id="page" x1="80" y1="40" x2="1110" y2="590" gradientUnits="userSpaceOnUse">
      <stop offset="0" stop-color="#EAF8F5" />
      <stop offset="0.48" stop-color="#EEF7FB" />
      <stop offset="1" stop-color="#F7FBF8" />
    </linearGradient>
    <linearGradient id="mark" x1="444" y1="168" x2="760" y2="462" gradientUnits="userSpaceOnUse">
      <stop offset="0" stop-color="#7AAFD6" />
      <stop offset="0.55" stop-color="#6BAFA7" />
      <stop offset="1" stop-color="#9CCFB8" />
    </linearGradient>
    <filter id="shadow" x="-20%" y="-20%" width="140%" height="140%">
      <feDropShadow dx="0" dy="24" stdDeviation="28" flood-color="#456B6E" flood-opacity="0.18" />
    </filter>
  </defs>
  <rect width="1200" height="630" fill="url(#page)" />
  <rect x="128" y="102" width="944" height="426" rx="42" fill="rgba(255,255,255,0.76)" filter="url(#shadow)" />
  <circle cx="228" cy="188" r="11" fill="#6BAFA7" />
  <circle cx="262" cy="188" r="11" fill="#7AAFD6" />
  <circle cx="296" cy="188" r="11" fill="#DFA7B3" />
  <path
    d="M463 312c0-70 45-122 108-122 35 0 61 15 81 42 20-27 46-42 81-42 63 0 108 52 108 122 0 90-79 143-189 216C542 455 463 402 463 312Z"
    fill="none"
    stroke="url(#mark)"
    stroke-width="24"
    stroke-linecap="round"
    stroke-linejoin="round"
  />
  <circle cx="784" cy="178" r="30" fill="#DFA7B3" />
  <text x="600" y="390" text-anchor="middle" font-family="Inter, -apple-system, BlinkMacSystemFont, 'Segoe UI', sans-serif" font-size="66" font-weight="700" fill="#243233">
    Relationship OS
  </text>
  <text x="600" y="450" text-anchor="middle" font-family="Inter, -apple-system, BlinkMacSystemFont, 'Segoe UI', sans-serif" font-size="27" font-weight="500" fill="#6F8585">
    Memories, dreams, plans, and growth for two.
  </text>
</svg>
